<svg width="119" height="13" viewBox="0 0 119 13" fill="none" xmlns="http://www.w3.org/2000/svg">
<path d="M3.606 12V3.312H0.262V0.799999H9.926V3.312H6.486V12H3.606ZM14.0438 12.16C13.0944 12.16 12.2678 11.9733 11.5638 11.6C10.8704 11.216 10.3318 10.6933 9.94775 10.032C9.56375 9.37067 9.37175 8.61867 9.37175 7.776C9.37175 6.90133 9.55842 6.13333 9.93175 5.472C10.3051 4.8 10.8171 4.272 11.4678 3.888C12.1184 3.504 12.8598 3.312 13.6918 3.312C14.4918 3.312 15.2011 3.49867 15.8198 3.872C16.4384 4.24533 16.9184 4.75733 17.2598 5.408C17.6011 6.05867 17.7664 6.8 17.7558 7.632L17.7398 8.32H11.9958C12.1344 8.77867 12.4011 9.14133 12.7958 9.408C13.2011 9.67467 13.7184 9.808 14.3478 9.808C14.6998 9.808 15.0091 9.76 15.2758 9.664C15.5531 9.55733 15.8464 9.38133 16.1558 9.136L17.4198 10.928C16.8864 11.3653 16.3371 11.68 15.7718 11.872C15.2064 12.064 14.6304 12.16 14.0438 12.16ZM13.7398 5.552C12.7691 5.552 12.1771 5.98933 11.9638 6.864H15.2598V6.848C15.2384 6.47467 15.0838 6.16533 14.7958 5.92C14.5184 5.67467 14.1664 5.552 13.7398 5.552ZM22.2348 12.16C21.3814 12.16 20.6294 12.0267 19.9788 11.76C19.3388 11.4933 18.8268 11.136 18.4428 10.688L20.0748 9.28C20.4054 9.61067 20.7788 9.85067 21.1948 10C21.6214 10.1493 22.0161 10.224 22.3788 10.224C22.6561 10.224 22.8694 10.1707 23.0188 10.064C23.1681 9.94667 23.2428 9.79733 23.2428 9.616C23.2428 9.41333 23.1521 9.25867 22.9708 9.152C22.7788 9.04533 22.3308 8.90133 21.6268 8.72C20.6454 8.47467 19.9201 8.12267 19.4508 7.664C19.2268 7.45067 19.0561 7.20533 18.9388 6.928C18.8214 6.64 18.7628 6.32533 18.7628 5.984C18.7628 5.44 18.9228 4.97067 19.2428 4.576C19.5628 4.17067 19.9841 3.86133 20.5068 3.648C21.0401 3.424 21.6054 3.312 22.2028 3.312C22.9174 3.312 23.5788 3.42933 24.1868 3.664C24.8054 3.888 25.3388 4.19733 25.7868 4.592L24.3788 6.176C24.1014 5.92 23.7601 5.696 23.3548 5.504C22.9601 5.312 22.5761 5.216 22.2028 5.216C21.6481 5.216 21.3708 5.41867 21.3708 5.824C21.3708 6.048 21.4828 6.224 21.7068 6.352C21.8028 6.40533 21.9681 6.47467 22.2028 6.56C22.4374 6.63467 22.7628 6.73067 23.1788 6.848C23.6801 6.98667 24.1121 7.14667 24.4748 7.328C24.8374 7.49867 25.1254 7.70133 25.3388 7.936C25.6801 8.30933 25.8508 8.768 25.8508 9.312C25.8508 9.86667 25.6908 10.3573 25.3708 10.784C25.0614 11.2107 24.6348 11.5467 24.0908 11.792C23.5468 12.0373 22.9281 12.16 22.2348 12.16ZM27.9635 12V5.84H26.4915V3.488H27.9635V1.344H30.6835V3.488H32.2675V5.84H30.6835V12H27.9635ZM33.7454 12V3.488H36.2894L36.3534 4.48C36.652 4.128 37.0254 3.84533 37.4734 3.632C37.932 3.41867 38.412 3.312 38.9134 3.312C39.8734 3.312 40.604 3.61067 41.1054 4.208C41.6174 4.79467 41.8734 5.648 41.8734 6.768V12H39.1534V6.992C39.1534 6.032 38.7427 5.56267 37.9214 5.584C37.4947 5.584 37.1427 5.712 36.8654 5.968C36.588 6.224 36.4494 6.53867 36.4494 6.912V12H33.7454ZM48.075 12.16C47.1257 12.16 46.299 11.9733 45.595 11.6C44.9017 11.216 44.363 10.6933 43.979 10.032C43.595 9.37067 43.403 8.61867 43.403 7.776C43.403 6.90133 43.5897 6.13333 43.963 5.472C44.3363 4.8 44.8483 4.272 45.499 3.888C46.1497 3.504 46.891 3.312 47.723 3.312C48.523 3.312 49.2323 3.49867 49.851 3.872C50.4697 4.24533 50.9497 4.75733 51.291 5.408C51.6323 6.05867 51.7977 6.8 51.787 7.632L51.771 8.32H46.027C46.1657 8.77867 46.4323 9.14133 46.827 9.408C47.2323 9.67467 47.7497 9.808 48.379 9.808C48.731 9.808 49.0403 9.76 49.307 9.664C49.5843 9.55733 49.8777 9.38133 50.187 9.136L51.451 10.928C50.9177 11.3653 50.3683 11.68 49.803 11.872C49.2377 12.064 48.6617 12.16 48.075 12.16ZM47.771 5.552C46.8003 5.552 46.2083 5.98933 45.995 6.864H49.291V6.848C49.2697 6.47467 49.115 6.16533 48.827 5.92C48.5497 5.67467 48.1977 5.552 47.771 5.552ZM54.026 12V5.84H52.554V3.488H54.026V1.344H56.746V3.488H58.33V5.84H56.746V12H54.026ZM65.2823 12V0.799999H73.0743V3.312H68.1623V5.424H72.4343V7.792H68.1623V12H65.2823ZM77.8494 12.144C77.1454 12.144 76.5107 11.9573 75.9454 11.584C75.3907 11.2 74.948 10.6773 74.6174 10.016C74.2974 9.344 74.1374 8.58133 74.1374 7.728C74.1374 6.864 74.2974 6.10133 74.6174 5.44C74.948 4.77867 75.396 4.26133 75.9614 3.888C76.5374 3.504 77.1934 3.312 77.9294 3.312C78.484 3.312 78.9694 3.41867 79.3854 3.632C79.8014 3.84533 80.148 4.12267 80.4254 4.464V3.488H83.0974V12H80.3614V11.024C80.0734 11.3547 79.716 11.6267 79.2894 11.84C78.8627 12.0427 78.3827 12.144 77.8494 12.144ZM78.6174 9.888C79.1827 9.888 79.6254 9.696 79.9454 9.312C80.276 8.91733 80.4414 8.38933 80.4414 7.728C80.4414 7.07733 80.276 6.56 79.9454 6.176C79.6254 5.78133 79.1827 5.584 78.6174 5.584C78.0627 5.584 77.62 5.78133 77.2894 6.176C76.9694 6.56 76.8094 7.07733 76.8094 7.728C76.8094 8.38933 76.9694 8.91733 77.2894 9.312C77.62 9.696 78.0627 9.888 78.6174 9.888ZM88.0941 12.176C87.1555 12.176 86.4195 11.8773 85.8861 11.28C85.3635 10.672 85.1021 9.824 85.1021 8.736V3.488H87.8221V8.416C87.8221 8.896 87.9341 9.26933 88.1581 9.536C88.3928 9.80267 88.7235 9.936 89.1501 9.936C89.5661 9.936 89.9075 9.808 90.1741 9.552C90.4408 9.296 90.5741 8.97067 90.5741 8.576V3.488H93.2941V12H90.7501L90.6701 10.944C90.3928 11.3173 90.0248 11.616 89.5661 11.84C89.1075 12.064 88.6168 12.176 88.0941 12.176ZM99.3491 12.16C98.5065 12.16 97.7545 11.968 97.0931 11.584C96.4425 11.2 95.9251 10.6773 95.5411 10.016C95.1678 9.344 94.9811 8.58667 94.9811 7.744C94.9811 6.89067 95.1678 6.13333 95.5411 5.472C95.9251 4.8 96.4425 4.272 97.0931 3.888C97.7545 3.504 98.5065 3.312 99.3491 3.312C100.106 3.312 100.805 3.44533 101.445 3.712C102.085 3.968 102.592 4.33067 102.965 4.8L101.493 6.56C101.28 6.304 101.008 6.09067 100.677 5.92C100.357 5.74933 99.9945 5.664 99.5891 5.664C99.0131 5.664 98.5438 5.86133 98.1811 6.256C97.8185 6.64 97.6371 7.13067 97.6371 7.728C97.6371 8.31467 97.8185 8.81067 98.1811 9.216C98.5438 9.61067 99.0131 9.808 99.5891 9.808C99.9945 9.808 100.352 9.73333 100.661 9.584C100.981 9.424 101.258 9.20533 101.493 8.928L102.949 10.704C102.576 11.152 102.064 11.5093 101.413 11.776C100.773 12.032 100.085 12.16 99.3491 12.16ZM108.403 12.16C107.454 12.16 106.627 11.9733 105.923 11.6C105.23 11.216 104.691 10.6933 104.307 10.032C103.923 9.37067 103.731 8.61867 103.731 7.776C103.731 6.90133 103.918 6.13333 104.291 5.472C104.664 4.8 105.176 4.272 105.827 3.888C106.478 3.504 107.219 3.312 108.051 3.312C108.851 3.312 109.56 3.49867 110.179 3.872C110.798 4.24533 111.278 4.75733 111.619 5.408C111.96 6.05867 112.126 6.8 112.115 7.632L112.099 8.32H106.355C106.494 8.77867 106.76 9.14133 107.155 9.408C107.56 9.67467 108.078 9.808 108.707 9.808C109.059 9.808 109.368 9.76 109.635 9.664C109.912 9.55733 110.206 9.38133 110.515 9.136L111.779 10.928C111.246 11.3653 110.696 11.68 110.131 11.872C109.566 12.064 108.99 12.16 108.403 12.16ZM108.099 5.552C107.128 5.552 106.536 5.98933 106.323 6.864H109.619V6.848C109.598 6.47467 109.443 6.16533 109.155 5.92C108.878 5.67467 108.526 5.552 108.099 5.552ZM114.354 12V5.84H112.882V3.488H114.354V1.344H117.074V3.488H118.658V5.84H117.074V12H114.354Z" fill="url(#paint0_linear_1_99)"/>
<defs>
<linearGradient id="paint0_linear_1_99" x1="-61" y1="6" x2="-54.5135" y2="44.9189" gradientUnits="userSpaceOnUse">
<stop stop-color="#00B6BA"/>
<stop offset="1" stop-color="#53F8FF"/>
</linearGradient>
</defs>
</svg>
