<?xml version="1.0" encoding="UTF-8"?>
<svg width="154px" height="33px" viewBox="0 0 154 33" version="1.1" xmlns="http://www.w3.org/2000/svg" xmlns:xlink="http://www.w3.org/1999/xlink">
    <title>编组 3</title>
    <defs>
        <rect id="path-1" x="0" y="0" width="30" height="30" rx="6"></rect>
    </defs>
    <g id="页面-1" stroke="none" stroke-width="1" fill="none" fill-rule="evenodd">
        <g id="Dark_Liquidity备份" transform="translate(-1237.000000, -22.000000)">
            <g id="编组-3" transform="translate(1237.000000, 22.000000)">
                <g id="编组-9备份-6" transform="translate(0.000000, 3.000000)">
                    <mask id="mask-2" fill="white">
                        <use xlink:href="#path-1"></use>
                    </mask>
                    <rect stroke="#2AD4D9" stroke-width="1.5" x="0.75" y="0.75" width="28.5" height="28.5" rx="6"></rect>
                    <g id="编组" mask="url(#mask-2)" fill="#2AD4D9">
                        <g transform="translate(8.000000, 7.000000)">
                            <path d="M8.96365432,5.790824 C8.96365432,5.072184 9.5427124,4.487704 10.254686,4.487704 C10.9666595,4.487704 11.5457176,5.072184 11.5457176,5.790824 C11.5457176,6.509464 10.9666595,7.093944 10.254686,7.093944 C9.5427124,7.093944 8.96365432,6.509464 8.96365432,5.790824" id="Fill-1"></path>
                            <path d="M9.24844374,9.82696 C7.44429657,9.82696 5.98222642,8.3512 5.98222642,6.53016 C5.98222642,4.71016 7.44429657,3.2344 9.24844374,3.2344 C11.0525909,3.2344 12.5146611,4.71016 12.5146611,6.53016 C12.5146611,8.3512 11.0525909,9.82696 9.24844374,9.82696 M11.9974241,1.76904 L11.9974241,0 C5.37122741,0 0,5.42152 0,12.10872 L10.9000987,12.10872 C12.9772893,12.10872 14.7113725,13.76648 14.7639205,15.86416 C14.7649508,15.91096 14.7649508,15.9588 14.7649508,16.0056 C14.7649508,19.03408 12.3343494,21.48744 9.33499335,21.48744 C7.48138926,21.48744 5.97810501,19.97008 5.97810501,18.09912 C5.97810501,16.94368 6.90748293,16.0056 8.05220452,16.0056 C8.17893788,16.0056 8.30154982,16.02536 8.41591895,16.05968 C8.32524793,16.29472 8.27888207,16.55368 8.28918559,16.82512 C8.32730863,17.77048 9.07740523,18.55048 10.0129653,18.61392 C11.0958657,18.6888 11.9974241,17.82352 11.9974241,16.74608 L11.9974241,16.69304 C11.9685742,15.13616 10.7094835,13.884 9.16189413,13.884 C6.63031812,13.884 4.57785601,15.95568 4.57785601,18.512 C4.57785601,22.64704 7.89971236,26 11.9974241,26 C18.6267119,26 24,20.5764 24,13.884 C24,7.19368 18.6267119,1.76904 11.9974241,1.76904" id="Fill-3"></path>
                            <path d="M13.1665651,1.386008 C13.3819087,1.406808 13.596222,1.431768 13.8074443,1.462968 C13.8084746,1.456728 13.8105354,1.450488 13.8105354,1.444248 C13.844537,1.082328 13.5817971,0.762008 13.2242648,0.727688 C12.8667325,0.694408 12.5493839,0.959608 12.5153823,1.320488 C12.5153823,1.326728 12.5153823,1.334008 12.514352,1.341288 C12.730726,1.350648 12.9481303,1.364168 13.1665651,1.386008" id="Fill-5"></path>
                            <path d="M15.2755935,1.771952 L15.2817756,1.732432 C15.3147469,1.370512 15.052007,1.051232 14.6955051,1.015872 C14.3760958,0.986752 14.0906882,1.193712 14.00826,1.494272 C14.4389473,1.566032 14.8624222,1.658592 15.2755935,1.771952" id="Fill-7"></path>
                            <path d="M16.6953162,2.256488 C16.7087108,2.212808 16.7169536,2.168088 16.721075,2.121288 C16.756107,1.760408 16.4933671,1.441128 16.1348044,1.406808 C15.8380629,1.377688 15.5681106,1.557608 15.467136,1.826968 C15.8864895,1.948648 16.2955394,2.092168 16.6953162,2.256488" id="Fill-9"></path>
                            <path d="M18.0486842,2.91148 C18.0795947,2.84492 18.1022625,2.77108 18.1094749,2.69308 C18.1424462,2.3322 17.8797063,2.01188 17.522174,1.9786 C17.2491306,1.95156 16.998755,2.10132 16.8812948,2.33428 C17.2831323,2.50692 17.6726055,2.70036 18.0486842,2.91148" id="Fill-11"></path>
                            <path d="M19.3104538,3.726008 C19.3547589,3.646968 19.3846392,3.557528 19.3939123,3.459768 C19.4268836,3.098888 19.1641437,2.779608 18.8076418,2.745288 C18.5706607,2.722408 18.3532563,2.831608 18.2224016,3.011528 C18.5984802,3.229928 18.9611643,3.469128 19.3104538,3.726008" id="Fill-13"></path>
                            <path d="M20.4666123,4.6878 C20.5469798,4.59004 20.6005581,4.46836 20.6129223,4.33212 C20.646924,3.97124 20.3841841,3.65092 20.0256214,3.6166 C19.8071867,3.5958 19.6031769,3.68732 19.4702615,3.84436 C19.8174902,4.10852 20.1492637,4.39036 20.4666123,4.6878" id="Fill-15"></path>
                            <path d="M21.5030438,5.784688 C21.6071094,5.680688 21.676143,5.541328 21.6915983,5.381168 C21.7256,5.021328 21.4628601,4.699968 21.1042974,4.666688 C20.918834,4.649008 20.7447044,4.712448 20.6138497,4.827888 C20.9260465,5.131568 21.2238183,5.451888 21.5030438,5.784688" id="Fill-17"></path>
                        </g>
                    </g>
                </g>
                <text id="Cross-chain,Privacy" font-family="IBMPlexSans-Bold, IBM Plex Sans" font-size="12" font-weight="bold" fill="#EFEFEF">
                    <tspan x="41.104" y="30">Cross-chain,Privacy</tspan>
                </text>
                <text id="Zecrey-Wallet" fill-rule="nonzero" font-family="Lexend-Bold, Lexend" font-size="16" font-weight="bold" fill="#2AD4D9">
                    <tspan x="40.576" y="16">Zecrey Wallet</tspan>
                </text>
            </g>
        </g>
    </g>
</svg>